<svg width="173" height="33" viewBox="0 0 173 33" fill="none" xmlns="http://www.w3.org/2000/svg">
<path fill-rule="evenodd" clip-rule="evenodd" d="M28.0823 22.3439C29.3035 20.1732 30 17.6679 30 15C30 6.71573 23.2843 0 15 0C6.71573 0 0 6.71573 0 15C0 23.2843 6.71573 30 15 30C16.5887 30 18.1198 29.753 19.5568 29.2953L13.1885 22.927C9.57063 22.1037 6.8704 18.8672 6.8704 15C6.8704 10.5101 10.5101 6.8704 15 6.8704C19.4899 6.8704 23.1296 10.5101 23.1296 15C23.1296 15.7311 23.0331 16.4397 22.8521 17.1137L28.0823 22.3439Z" fill="#FC6652"/>
<rect width="19" height="6.16864" rx="3.08432" transform="matrix(-0.707107 -0.707107 -0.707107 0.707107 30.7969 28.4355)" fill="white"/>
<path d="M47.268 24.416C45.76 24.416 44.2867 24.2513 42.848 23.922C41.4267 23.5753 40.2567 23.116 39.338 22.544L41.314 18.072C42.1807 18.5747 43.1513 18.982 44.226 19.294C45.3007 19.5887 46.332 19.736 47.32 19.736C48.1693 19.736 48.776 19.658 49.14 19.502C49.504 19.3287 49.686 19.0773 49.686 18.748C49.686 18.3667 49.4433 18.0807 48.958 17.89C48.49 17.6993 47.71 17.4913 46.618 17.266C45.214 16.9713 44.044 16.6593 43.108 16.33C42.172 15.9833 41.3573 15.4287 40.664 14.666C39.9707 13.886 39.624 12.8373 39.624 11.52C39.624 10.376 39.9447 9.336 40.586 8.4C41.2273 7.464 42.1807 6.72733 43.446 6.19C44.7287 5.65267 46.28 5.384 48.1 5.384C49.348 5.384 50.57 5.52267 51.766 5.8C52.9793 6.06 54.0453 6.45 54.964 6.97L53.118 11.416C51.3327 10.5147 49.6427 10.064 48.048 10.064C46.4707 10.064 45.682 10.4453 45.682 11.208C45.682 11.572 45.916 11.8493 46.384 12.04C46.852 12.2133 47.6233 12.404 48.698 12.612C50.0847 12.872 51.2547 13.1753 52.208 13.522C53.1613 13.8513 53.9847 14.3973 54.678 15.16C55.3887 15.9227 55.744 16.9627 55.744 18.28C55.744 19.424 55.4233 20.464 54.782 21.4C54.1407 22.3187 53.1787 23.0553 51.896 23.61C50.6307 24.1473 49.088 24.416 47.268 24.416ZM64.9019 24.26C63.3246 24.26 61.9032 23.948 60.6379 23.324C59.3899 22.6827 58.4106 21.8073 57.6999 20.698C56.9892 19.5713 56.6339 18.2973 56.6339 16.876C56.6339 15.4547 56.9892 14.1893 57.6999 13.08C58.4106 11.9533 59.3899 11.078 60.6379 10.454C61.9032 9.83 63.3246 9.518 64.9019 9.518C66.4966 9.518 67.9179 9.83 69.1659 10.454C70.4312 11.078 71.4106 11.9533 72.1039 13.08C72.8146 14.1893 73.1699 15.4547 73.1699 16.876C73.1699 18.2973 72.8146 19.5713 72.1039 20.698C71.4106 21.8073 70.4312 22.6827 69.1659 23.324C67.9179 23.948 66.4966 24.26 64.9019 24.26ZM64.9019 19.684C65.5779 19.684 66.1326 19.4413 66.5659 18.956C66.9992 18.4533 67.2159 17.76 67.2159 16.876C67.2159 15.992 66.9992 15.3073 66.5659 14.822C66.1326 14.3367 65.5779 14.094 64.9019 14.094C64.2259 14.094 63.6712 14.3367 63.2379 14.822C62.8046 15.3073 62.5879 15.992 62.5879 16.876C62.5879 17.76 62.8046 18.4533 63.2379 18.956C63.6712 19.4413 64.2259 19.684 64.9019 19.684ZM75.009 4.708H80.885V24H75.009V4.708ZM99.0375 9.778V24H93.4475V22.648C92.9275 23.1853 92.3208 23.5927 91.6275 23.87C90.9341 24.13 90.1975 24.26 89.4175 24.26C87.6148 24.26 86.1675 23.714 85.0755 22.622C83.9835 21.5127 83.4375 19.8487 83.4375 17.63V9.778H89.3135V16.616C89.3135 17.5867 89.4695 18.28 89.7815 18.696C90.0935 19.112 90.5528 19.32 91.1595 19.32C91.7315 19.32 92.2081 19.0947 92.5895 18.644C92.9708 18.176 93.1615 17.448 93.1615 16.46V9.778H99.0375ZM112.122 23.506C111.238 24.0087 110.033 24.26 108.508 24.26C106.514 24.26 104.98 23.7833 103.906 22.83C102.831 21.8593 102.294 20.412 102.294 18.488V14.848H100.344V10.558H102.294V6.58H108.17V10.558H111.082V14.848H108.17V18.436C108.17 18.8693 108.282 19.2073 108.508 19.45C108.733 19.6927 109.028 19.814 109.392 19.814C109.894 19.814 110.336 19.684 110.718 19.424L112.122 23.506ZM113.603 9.778H119.479V24H113.603V9.778ZM116.541 8.634C115.483 8.634 114.625 8.35667 113.967 7.802C113.325 7.23 113.005 6.51067 113.005 5.644C113.005 4.77733 113.325 4.06667 113.967 3.512C114.625 2.94 115.483 2.654 116.541 2.654C117.615 2.654 118.473 2.92267 119.115 3.46C119.756 3.99733 120.077 4.69067 120.077 5.54C120.077 6.44133 119.756 7.18667 119.115 7.776C118.473 8.348 117.615 8.634 116.541 8.634ZM129.597 24.26C128.02 24.26 126.599 23.948 125.333 23.324C124.085 22.6827 123.106 21.8073 122.395 20.698C121.685 19.5713 121.329 18.2973 121.329 16.876C121.329 15.4547 121.685 14.1893 122.395 13.08C123.106 11.9533 124.085 11.078 125.333 10.454C126.599 9.83 128.02 9.518 129.597 9.518C131.192 9.518 132.613 9.83 133.861 10.454C135.127 11.078 136.106 11.9533 136.799 13.08C137.51 14.1893 137.865 15.4547 137.865 16.876C137.865 18.2973 137.51 19.5713 136.799 20.698C136.106 21.8073 135.127 22.6827 133.861 23.324C132.613 23.948 131.192 24.26 129.597 24.26ZM129.597 19.684C130.273 19.684 130.828 19.4413 131.261 18.956C131.695 18.4533 131.911 17.76 131.911 16.876C131.911 15.992 131.695 15.3073 131.261 14.822C130.828 14.3367 130.273 14.094 129.597 14.094C128.921 14.094 128.367 14.3367 127.933 14.822C127.5 15.3073 127.283 15.992 127.283 16.876C127.283 17.76 127.5 18.4533 127.933 18.956C128.367 19.4413 128.921 19.684 129.597 19.684ZM149.584 9.518C151.335 9.518 152.739 10.0467 153.796 11.104C154.871 12.1613 155.408 13.756 155.408 15.888V24H149.532V16.902C149.532 15.2727 148.952 14.458 147.79 14.458C147.132 14.458 146.594 14.692 146.178 15.16C145.78 15.6107 145.58 16.33 145.58 17.318V24H139.704V9.778H145.294V11.182C145.849 10.6273 146.49 10.2113 147.218 9.934C147.946 9.65667 148.735 9.518 149.584 9.518ZM163.524 24.26C162.311 24.26 161.115 24.13 159.936 23.87C158.757 23.61 157.804 23.272 157.076 22.856L158.688 18.982C159.347 19.3807 160.127 19.6927 161.028 19.918C161.929 20.1433 162.805 20.256 163.654 20.256C164.33 20.256 164.798 20.204 165.058 20.1C165.335 19.9787 165.474 19.8053 165.474 19.58C165.474 19.3547 165.301 19.1987 164.954 19.112C164.625 19.0253 164.079 18.9387 163.316 18.852C162.155 18.7133 161.167 18.54 160.352 18.332C159.537 18.1067 158.818 17.682 158.194 17.058C157.587 16.434 157.284 15.5413 157.284 14.38C157.284 13.4613 157.561 12.638 158.116 11.91C158.671 11.182 159.494 10.6013 160.586 10.168C161.695 9.73467 163.021 9.518 164.564 9.518C165.639 9.518 166.687 9.622 167.71 9.83C168.75 10.0207 169.634 10.3067 170.362 10.688L168.75 14.562C167.502 13.8687 166.133 13.522 164.642 13.522C163.359 13.522 162.718 13.7473 162.718 14.198C162.718 14.4233 162.891 14.588 163.238 14.692C163.585 14.7787 164.131 14.8653 164.876 14.952C166.037 15.0907 167.017 15.2727 167.814 15.498C168.629 15.7233 169.339 16.148 169.946 16.772C170.57 17.396 170.882 18.2887 170.882 19.45C170.882 20.334 170.605 21.14 170.05 21.868C169.495 22.596 168.663 23.1767 167.554 23.61C166.445 24.0433 165.101 24.26 163.524 24.26Z" fill="white"/>
</svg>
